<?xml version="1.0" encoding="utf-8"?>
<!-- Generator: Adobe Illustrator 23.0.0, SVG Export Plug-In . SVG Version: 6.00 Build 0)  -->
<svg version="1.1" id="Layer_1" xmlns="http://www.w3.org/2000/svg" xmlns:xlink="http://www.w3.org/1999/xlink" x="0px" y="0px"
	 viewBox="0 0 805 249" style="enable-background:new 0 0 805 249;" xml:space="preserve">
<style type="text/css">
	.st0{fill:#0FB0A3;}
	.st1{fill:url(#SVGID_1_);}
	.st2{fill:url(#SVGID_2_);}
	.st3{fill:url(#SVGID_3_);}
</style>
<g>
	<path class="st0" d="M353.5,25.2h30.1v6.4h-11.3v31h-7.6v-31h-11.2V25.2z"/>
	<path class="st0" d="M393.9,39.2h0.2c1.6-2.8,4.6-4.4,7.8-4.2c5.5,0,9.3,4.2,9.3,10v17.5H404V46.1c0-2.9-1.7-4.9-4.7-4.9
		s-5.4,2.5-5.4,6.2v15.2h-7.1V25.2h7.1V39.2z"/>
	<path class="st0" d="M414.2,49.1c0-8,5.4-14.1,13.2-14.1c8.6,0,13.2,6.6,13.2,16.2h-19.5c0.5,4.1,2.8,6.7,6.8,6.7
		c2.8,0,4.4-1.3,5.2-3.3h7c-1,4.8-5.2,8.8-12.2,8.8C419.3,63.4,414.2,57.1,414.2,49.1z M421.4,46.2h11.9c-0.2-3.4-2.5-5.8-5.7-5.8
		C423.8,40.5,422,42.7,421.4,46.2z"/>
	<path class="st0" d="M463.7,25.2h7.8l13.2,37.4h-7.9l-2.5-8h-13.5l-2.5,8h-7.7L463.7,25.2z M462.6,48.8h9.9L469.1,38
		c-0.6-2-1.5-5.8-1.5-5.8h-0.1c0,0-1,3.8-1.6,5.8L462.6,48.8z"/>
	<path class="st0" d="M487.4,25.2h7.1v37.4h-7.1L487.4,25.2z"/>
	<path class="st0" d="M499.3,25.2h7.2v37.4h-7.1L499.3,25.2z"/>
	<path class="st0" d="M511.1,25.2h7.1v6.4h-7.1V25.2z M511.1,35.7h7.1v26.8h-7.1V35.7z"/>
	<path class="st0" d="M538.9,59.6h-0.1c-1.4,2-3.3,3.6-7.9,3.6c-5.5,0-9.4-2.9-9.4-8.2c0-5.9,4.8-7.8,10.8-8.6c4.5-0.6,6.5-1,6.5-3
		s-1.5-3.2-4.5-3.2c-3.3,0-5,1.2-5.2,3.8h-6.3c0.2-4.7,3.7-8.8,11.6-8.8c8.1,0,11.3,3.6,11.3,9.9v13.7c0,2,0.3,3.2,0.9,3.7v0.3h-6.8
		C539.3,61.7,539,60.7,538.9,59.6z M538.9,53.1v-4c-1.6,0.7-3.3,1.3-5,1.6c-3.7,0.8-5.5,1.7-5.5,4.2s1.7,3.4,4.2,3.4
		C536.7,58.2,539,55.7,538.9,53.1L538.9,53.1z"/>
	<path class="st0" d="M557.1,39.4h0.2c1.6-2.9,4.7-4.6,8-4.4c5.5,0,9.3,4.2,9.3,10v17.5h-7.2V46.1c0-2.9-1.7-4.9-4.7-4.9
		s-5.4,2.5-5.4,6.2v15.2h-7.1V35.7h7L557.1,39.4z"/>
	<path class="st0" d="M577.6,49.2c0-8,5.2-14.2,13.4-14.2c7,0,11.3,4,12.2,9.8h-7c-0.4-2.4-2.5-4.2-4.9-4.1c-4.3,0-6.5,3.3-6.5,8.5
		c0,5.2,2,8.5,6.4,8.5c2.7,0.2,5.2-1.8,5.4-4.6h6.9c-0.5,5.7-4.9,10.3-12.1,10.3C582.9,63.4,577.6,57.2,577.6,49.2z"/>
	<path class="st0" d="M605.2,49.1c0-8,5.4-14.1,13.3-14.1c8.6,0,13.2,6.6,13.2,16.2h-19.5c0.5,4.1,2.8,6.7,6.8,6.7
		c2.8,0,4.4-1.3,5.2-3.3h7c-1,4.8-5.2,8.8-12.1,8.8C610.3,63.4,605.2,57.1,605.2,49.1z M612.3,46.2h11.9c-0.2-3.4-2.5-5.8-5.7-5.8
		C614.8,40.5,613,42.7,612.3,46.2z"/>
	<path class="st0" d="M642.2,35.7h3.7v-2.4c0-6.5,5.1-8.9,11.9-8.1v5.5c-3.3-0.2-4.8,0.3-4.8,3v2h4.8v4.9H653v21.9h-7.1V40.6h-3.7
		L642.2,35.7z"/>
	<path class="st0" d="M659,49.2c0-8,5.7-14.2,14-14.2s14,6.2,14,14.2s-5.7,14.2-14,14.2S659,57.2,659,49.2z M679.8,49.2
		c0-5.2-2.5-8.8-6.8-8.8s-6.8,3.6-6.8,8.8c0,5.2,2.4,8.7,6.8,8.7S679.8,54.4,679.8,49.2z"/>
	<path class="st0" d="M697.2,40h0.2c1.6-3,3.5-4.6,6.6-4.6c0.6,0,1.1,0,1.7,0.2v6.2h-0.2c-4.7-0.5-8,2-8,7.6v13.1h-7.1V35.7h6.8
		L697.2,40z"/>
	<path class="st0" d="M733.5,59.6L733.5,59.6c-1.5,2-3.4,3.6-8,3.6c-5.5,0-9.4-2.9-9.4-8.2c0-5.9,4.8-7.8,10.8-8.6
		c4.5-0.6,6.5-1,6.5-3s-1.5-3.2-4.5-3.2c-3.3,0-5,1.2-5.2,3.8h-6.3c0.2-4.7,3.7-8.8,11.6-8.8c8.1,0,11.3,3.6,11.3,9.9v13.7
		c0,2,0.3,3.2,1,3.7v0.3h-6.9C733.9,61.7,733.6,60.7,733.5,59.6z M733.5,53.1v-4c-1.6,0.7-3.3,1.3-5,1.6c-3.7,0.8-5.5,1.7-5.5,4.2
		s1.7,3.4,4.2,3.4C731.3,58.2,733.6,55.7,733.5,53.1L733.5,53.1z"/>
	<path class="st0" d="M354.8,114.4c0-20.2,12.6-35.6,32.6-35.6c16.8,0,26.6,10,28.1,22.9h-13.7c-1.2-6.9-6.4-11.3-14.4-11.3
		c-12.6,0-18.5,10.5-18.5,24c0,13.9,7.2,23.9,18.6,23.9c8.1,0,13.8-4.9,14.6-12h13.5c-0.4,6.1-3.1,11.9-7.5,16.1
		c-4.7,4.4-11.2,7.2-20.6,7.2C368.4,149.6,354.8,134.9,354.8,114.4z"/>
	<path class="st0" d="M419.9,123.8c0-14.6,10.4-25.8,25.5-25.8s25.5,11.2,25.5,25.8s-10.4,25.8-25.5,25.8S419.9,138.4,419.9,123.8z
		 M457.8,123.8c0-9.5-4.5-16-12.4-16s-12.4,6.5-12.4,16s4.4,15.9,12.4,15.9S457.8,133.4,457.8,123.8z"/>
	<path class="st0" d="M489.5,106h0.3c3.3-5.2,7.8-8,14.5-8c10.1,0,16.8,7.6,16.8,18.3v31.9h-12.9v-30c0-5.2-3-8.9-8.5-8.9
		c-5.7,0-9.9,4.6-9.9,11.2v27.7h-12.9V99.4h12.7L489.5,106z"/>
	<path class="st0" d="M526.1,132.4h12c0.9,5.6,4.9,8.1,10.7,8.1s9-2.2,9-5.6c0-4.7-6.2-5.1-12.8-6.5c-8.8-1.7-17.3-4.1-17.3-14.7
		s8.8-15.6,19.9-15.6c12.8,0,20,6.4,20.9,16.2h-11.7c-0.6-5.2-3.9-7.1-9.4-7.1c-5,0-8.4,1.9-8.4,5.4c0,4.2,6.5,4.6,13.4,6
		c8.2,1.7,17.2,4,17.2,15.4c0,9.8-8.4,15.7-20.6,15.7C534.7,149.6,526.8,142.8,526.1,132.4z"/>
	<path class="st0" d="M573.4,123.8c0-14.6,9.5-25.8,24.4-25.8c12.7,0,20.5,7.3,22.2,17.9h-12.7c-0.7-4.4-4.5-7.6-8.9-7.5
		c-7.8,0-11.8,6-11.8,15.4c0,9.2,3.7,15.4,11.6,15.4c5.2,0,8.9-2.8,9.8-8.3h12.5c-0.9,10.4-9,18.6-22,18.6
		C583,149.6,573.4,138.4,573.4,123.8z"/>
	<path class="st0" d="M626,80.2h12.9v11.6H626V80.2z M626,99.4h12.9v48.8H626V99.4z"/>
	<path class="st0" d="M644.9,123.8c0-14.6,10.4-25.8,25.5-25.8s25.5,11.2,25.5,25.8s-10.4,25.8-25.5,25.8S644.9,138.4,644.9,123.8z
		 M682.8,123.8c0-9.5-4.5-16-12.4-16s-12.4,6.5-12.4,16s4.4,15.9,12.4,15.9S682.8,133.4,682.8,123.8z"/>
	<path class="st0" d="M732.7,148.2v-5.7h-0.2c-3.3,4.5-7.1,7-14,7c-10.8,0-16.9-7-16.9-17.6V99.4h12.8v30.4c0,5.7,2.6,8.9,8.1,8.9
		c6.1,0,9.8-4.6,9.8-11V99.4h12.9v48.8H732.7z"/>
	<path class="st0" d="M750.5,132.4h12c0.8,5.6,4.8,8.1,10.7,8.1s8.9-2.2,8.9-5.6c0-4.7-6.2-5.1-12.8-6.5
		c-8.8-1.7-17.3-4.1-17.3-14.7s8.8-15.6,19.9-15.6c12.8,0,20,6.4,20.9,16.2h-11.7c-0.6-5.2-3.9-7.1-9.4-7.1c-5,0-8.4,1.9-8.4,5.4
		c0,4.2,6.5,4.6,13.4,6c8.2,1.7,17.2,4,17.2,15.4c0,9.8-8.4,15.7-20.5,15.7C759.2,149.6,751.3,142.8,750.5,132.4z"/>
	<path class="st0" d="M357.9,165.8h13.8v68h-13.8V165.8z"/>
	<path class="st0" d="M393.8,191.7h0.3c3.3-5.2,7.8-8,14.5-8c10.1,0,16.9,7.6,16.9,18.3v31.9h-12.9v-30c0-5.2-3-8.9-8.5-8.9
		c-5.7,0-9.9,4.6-9.9,11.2v27.7h-12.9V185h12.6V191.7z"/>
	<path class="st0" d="M429.6,185h6.8v-15.2H449V185h8.4v8.6H449v25.9c0,3.6,2,4.9,4.8,4.9c1.6,0,3.8-0.1,3.8-0.1v9.5
		c0,0-3,0.2-8.1,0.2c-6.3,0-13.2-2.5-13.2-11.7v-28.7h-6.8L429.6,185z"/>
	<path class="st0" d="M461.2,209.4c0-14.5,9.8-25.7,24.1-25.7c15.7,0,24.1,12,24.1,29.4h-35.4c1,7.5,5.1,12.2,12.5,12.2
		c5,0,8-2.3,9.4-6h12.8c-1.8,8.7-9.5,16-22.1,16C470.3,235.3,461.2,223.9,461.2,209.4z M474.1,204.1h21.7
		c-0.4-6.2-4.5-10.5-10.4-10.5C478.6,193.7,475.3,197.8,474.1,204.1L474.1,204.1z"/>
	<path class="st0" d="M527.8,192.8h0.3c3-5.5,6.3-8.4,12-8.4c1-0.1,2,0.1,3,0.4v11.3h-0.3c-8.5-0.9-14.6,3.6-14.6,13.9v23.8h-12.9
		V185h12.5V192.8z"/>
	<path class="st0" d="M561.4,191.7h0.3c3.3-5.2,7.8-8,14.5-8c10.1,0,16.8,7.6,16.8,18.3v31.9H580v-30c0-5.2-3-8.9-8.5-8.9
		c-5.7,0-9.9,4.6-9.9,11.2v27.7h-12.9V185h12.7V191.7z"/>
	<path class="st0" d="M598.6,209.4c0-14.5,9.8-25.7,24.1-25.7c15.7,0,24.1,12,24.1,29.4h-35.4c1,7.5,5.1,12.2,12.5,12.2
		c5,0,8-2.3,9.4-6H646c-1.8,8.7-9.5,16-22.1,16C607.7,235.3,598.6,223.9,598.6,209.4z M611.5,204.1h21.7
		c-0.4-6.2-4.5-10.5-10.4-10.5C616,193.7,612.7,197.8,611.5,204.1z"/>
	<path class="st0" d="M648.9,185h6.8v-15.2h12.7V185h8.4v8.6h-8.4v25.9c0,3.6,2,4.9,4.9,4.9c1.6,0,3.8-0.1,3.8-0.1v9.5
		c0,0-3,0.2-8.1,0.2c-6.3,0-13.2-2.5-13.2-11.7v-28.7h-6.8V185z"/>
	
		<linearGradient id="SVGID_1_" gradientUnits="userSpaceOnUse" x1="11.1049" y1="207.4462" x2="232.5154" y2="207.4462" gradientTransform="matrix(1 0 0 -1 0 332)">
		<stop  offset="0" style="stop-color:#0C8ACC"/>
		<stop  offset="1" style="stop-color:#0FB0A3"/>
	</linearGradient>
	<path class="st1" d="M204.4,235.3c-29.4,0-76.8-27-121.5-71.8C24.9,105.5-3.4,43,18.5,21.1c10.6-10.6,31.4-9.6,58.6,2.9
		c26.6,12.3,56.3,34.1,83.7,61.5s49.3,57.1,61.5,83.7c12.5,27.1,13.6,48,2.9,58.6l0,0C220.2,232.9,213.1,235.3,204.4,235.3z
		 M39.1,17.7c-7.7,0-13.9,2-18,6.1c-20,20,8.9,81.4,64.4,137s117,84.4,137,64.4c9.3-9.3,8-29.1-3.7-54.3
		c-12.1-26.2-33.6-55.5-60.8-82.6s-56.4-48.7-82.6-60.7C61.4,21,48.9,17.7,39.1,17.7z"/>
	
		<linearGradient id="SVGID_2_" gradientUnits="userSpaceOnUse" x1="80.9602" y1="207.535" x2="302.4382" y2="207.535" gradientTransform="matrix(1 0 0 -1 0 332)">
		<stop  offset="0" style="stop-color:#0C8ACC"/>
		<stop  offset="1" style="stop-color:#0FB0A3"/>
	</linearGradient>
	<path class="st2" d="M109,235.2c-8.8,0-15.8-2.4-20.6-7.3c-21.8-21.9,6.4-84.4,64.4-142.4S273.2-0.7,295.1,21.1
		s-6.5,84.4-64.4,142.4c-27.4,27.4-57.1,49.3-83.7,61.5C132.2,231.8,119.3,235.2,109,235.2z M274.2,17.5c-28,0-75.2,27.2-118.8,70.8
		c-55.5,55.5-84.4,117-64.4,137s81.4-8.9,137-64.4s84.4-116.9,64.4-136.9C288.1,19.5,281.9,17.5,274.2,17.5z"/>
	
		<linearGradient id="SVGID_3_" gradientUnits="userSpaceOnUse" x1="43.8951" y1="202.3033" x2="312.2652" y2="202.3033" gradientTransform="matrix(1 0 0 -1 0 332)">
		<stop  offset="0" style="stop-color:#0C8ACC"/>
		<stop  offset="1" style="stop-color:#0FB0A3"/>
	</linearGradient>
	<path class="st3" d="M241.2,206.8c-0.5-2.4-1.8-4.6-3.5-6.3c-0.3-0.3-0.6-0.6-0.9-0.8c-1.4-1.1-3.1-1.9-4.9-2.3h0
		c-0.4-0.1-0.9-0.2-1.4-0.2c-0.4-0.1-0.9-0.1-1.3-0.1c-0.9,0-1.8,0.1-2.6,0.3c-0.3,0-0.5,0.1-0.8,0.2c-1.6,0.4-3,1.2-4.2,2.2
		c-2.3,1.8-3.9,4.4-4.4,7.3c-0.2,0.8-0.2,1.5-0.3,2.3c0,0.7,0.1,1.5,0.2,2.2c0.7,3.5,2.8,6.5,5.8,8.4c0.3,0.2,0.5,0.3,0.8,0.4
		c1.7,0.9,3.6,1.3,5.5,1.3c0.5,0,1-0.1,1.5-0.2h0.1c5.2-0.6,9.4-4.5,10.5-9.7c0.2-0.8,0.3-1.6,0.3-2.5
		C241.5,208.5,241.4,207.7,241.2,206.8z M312,47.4c-0.5-2.4-1.8-4.6-3.5-6.3c-0.3-0.3-0.6-0.6-0.9-0.8c-1.5-1.1-3.1-1.9-4.9-2.3h0
		c-0.4-0.1-0.9-0.2-1.4-0.2c-0.4-0.1-0.9-0.1-1.3-0.1c-0.9,0-1.8,0.1-2.6,0.3c-0.3,0.1-0.5,0.1-0.8,0.2c-1.6,0.4-3,1.2-4.2,2.2
		c-2.3,1.8-3.9,4.4-4.4,7.3c-0.2,0.8-0.3,1.5-0.3,2.3c0,0.7,0.1,1.5,0.2,2.2c0.7,3.5,2.8,6.5,5.8,8.4c0.3,0.2,0.5,0.3,0.8,0.4
		c1.7,0.9,3.6,1.3,5.5,1.3c0.5,0,1,0,1.5-0.2h0.1c5.2-0.6,9.4-4.5,10.5-9.7c0.2-0.8,0.3-1.6,0.3-2.4C312.3,49.1,312.2,48.3,312,47.4
		z M68.2,130.5c-0.5-2.4-1.7-4.6-3.5-6.3c-0.3-0.3-0.6-0.6-0.9-0.8c-1.4-1.1-3.1-1.9-4.9-2.3l0,0c-0.4-0.1-0.9-0.2-1.4-0.2
		c-0.4-0.1-0.9-0.1-1.3-0.1c-0.9,0-1.8,0.1-2.6,0.3c-0.3,0-0.5,0.1-0.8,0.2c-1.6,0.4-3,1.1-4.2,2.2c-2.3,1.8-3.9,4.4-4.4,7.3
		c-0.2,0.8-0.3,1.5-0.3,2.3c0,0.7,0.1,1.5,0.2,2.2c0.7,3.5,2.8,6.5,5.8,8.4c0.3,0.2,0.5,0.3,0.8,0.4c1.7,0.9,3.6,1.3,5.5,1.3
		c0.5,0,1,0,1.5-0.2h0.1c5.2-0.7,9.4-4.6,10.4-9.7c0.2-0.8,0.3-1.6,0.3-2.4C68.5,132.2,68.4,131.4,68.2,130.5z"/>
</g>
</svg>
