<?xml version="1.0" encoding="utf-8"?>
<!-- Generator: Adobe Illustrator 23.0.0, SVG Export Plug-In . SVG Version: 6.00 Build 0)  -->
<svg version="1.1" id="Layer_1" xmlns="http://www.w3.org/2000/svg" xmlns:xlink="http://www.w3.org/1999/xlink" x="0px" y="0px"
	 viewBox="0 0 150 108.3" style="enable-background:new 0 0 150 108.3;" xml:space="preserve">
<style type="text/css">
	.st0{fill:url(#SVGID_1_);}
	.st1{fill:url(#SVGID_2_);}
	.st2{fill:url(#SVGID_3_);}
	.st3{fill:url(#SVGID_4_);}
	.st4{fill:url(#SVGID_5_);}
	.st5{fill:url(#SVGID_6_);}
</style>
<g>
	
		<linearGradient id="SVGID_1_" gradientUnits="userSpaceOnUse" x1="72.7874" y1="616.862" x2="108.3498" y2="616.862" gradientTransform="matrix(1 0 0 1 0 -526)">
		<stop  offset="0" style="stop-color:#0C8ACC"/>
		<stop  offset="1" style="stop-color:#0FB0A3"/>
	</linearGradient>
	<path class="st0" d="M104.9,102.3c-2.4,2.4-5.7,3.5-9.9,3.5c-6.1,0-13.8-2.5-22.2-7c0.1-0.1,0.2-0.1,0.4-0.2s0.2-0.1,0.4-0.2
		c0.4-0.2,0.7-0.4,1.1-0.6c0.1-0.1,0.2-0.1,0.4-0.2c0.1-0.1,0.2-0.1,0.4-0.2c12.5,6.4,22.9,8,27.7,3.1c4-4,3.6-12.3-1-23
		c0.1-0.1,0.2-0.2,0.3-0.2c0.1-0.1,0.2-0.2,0.2-0.2c0.3-0.2,0.5-0.5,0.8-0.8c0.1-0.1,0.2-0.2,0.2-0.2c0.1-0.1,0.2-0.2,0.3-0.2
		C109.5,88,109.8,97.5,104.9,102.3z"/>
	
		<linearGradient id="SVGID_2_" gradientUnits="userSpaceOnUse" x1="43.5259" y1="612.2975" x2="72.8479" y2="612.2975" gradientTransform="matrix(1 0 0 1 0 -526)">
		<stop  offset="0" style="stop-color:#0C8ACC"/>
		<stop  offset="1" style="stop-color:#0FB0A3"/>
	</linearGradient>
	<path class="st1" d="M72.8,96.1c-0.1,0.1-0.2,0.1-0.4,0.2s-0.2,0.1-0.4,0.2c-0.4,0.2-0.8,0.4-1.1,0.6l-0.4,0.2
		c-0.1,0.1-0.2,0.1-0.4,0.2c-8.5-4.9-17.7-11.7-26.7-20c0.1-0.1,0.1-0.2,0.2-0.4c0-0.1,0.1-0.2,0.1-0.3c0.1-0.4,0.3-0.7,0.5-1
		c0.1-0.1,0.1-0.2,0.2-0.4c0.1-0.1,0.1-0.2,0.2-0.4C54.2,84.1,64,91.2,72.8,96.1z"/>
	
		<linearGradient id="SVGID_3_" gradientUnits="userSpaceOnUse" x1="4.9977" y1="565.0978" x2="72.8479" y2="565.0978" gradientTransform="matrix(1 0 0 1 0 -526)">
		<stop  offset="0" style="stop-color:#0C8ACC"/>
		<stop  offset="1" style="stop-color:#0FB0A3"/>
	</linearGradient>
	<path class="st2" d="M72.8,33.7c-0.1,0.1-0.2,0.2-0.2,0.2c-0.1,0.1-0.2,0.2-0.2,0.2c-0.2,0.2-0.5,0.5-0.7,0.7
		c-0.1,0.1-0.2,0.2-0.2,0.2l-0.2,0.2c-12-11.5-24.7-20.7-36.1-26C28.7,6.5,22.9,5,18.4,5c-3.6,0-6.2,0.9-8.1,2.7
		C5.9,12,6.6,21,12.1,32.9c5.6,12,15.6,25.4,28,37.8c0.9,0.9,1.8,1.8,2.7,2.6c-0.1,0.2-0.2,0.4-0.4,0.7c-0.2,0.4-0.3,0.7-0.5,1
		c-0.1,0.1-0.1,0.2-0.2,0.3c-0.1,0.1-0.1,0.2-0.2,0.4c-1.1-1.1-2.2-2.1-3.3-3.3C11.4,45.4-1.8,16.3,8.5,6C13.5,1,23.3,1.4,36,7.2
		C47.8,12.6,60.7,22,72.8,33.7z"/>
	
		<linearGradient id="SVGID_4_" gradientUnits="userSpaceOnUse" x1="37.3854" y1="580.1348" x2="140.7376" y2="580.1348" gradientTransform="matrix(1 0 0 1 0 -526)">
		<stop  offset="0" style="stop-color:#0C8ACC"/>
		<stop  offset="1" style="stop-color:#0FB0A3"/>
	</linearGradient>
	<path class="st3" d="M137.2,6c-10-10-38,2.2-64.4,27.8c-0.1,0.1-0.2,0.2-0.2,0.2c-0.1,0.1-0.2,0.2-0.2,0.2
		c-0.2,0.2-0.5,0.5-0.7,0.7c-0.1,0.1-0.2,0.2-0.2,0.2l-0.2,0.2l-0.4,0.4C58,48.5,48.4,61.8,42.9,73.3c-0.1,0.2-0.2,0.4-0.4,0.7
		c-0.2,0.4-0.3,0.7-0.5,1c-0.1,0.1-0.1,0.2-0.2,0.3s-0.1,0.2-0.2,0.4c-5.2,11.8-5.9,21.5-0.8,26.6c2.4,2.3,5.6,3.5,9.9,3.5
		c5,0,10.9-1.6,17.8-4.8c1.4-0.7,2.8-1.4,4.3-2.2c0.1-0.1,0.2-0.1,0.4-0.2c0.1-0.1,0.2-0.1,0.4-0.2c0.4-0.2,0.7-0.4,1.1-0.6
		c0.1-0.1,0.2-0.1,0.4-0.2s0.2-0.1,0.4-0.2c8.7-5,17.9-11.8,26.7-20c0.1-0.1,0.2-0.2,0.3-0.2c0.1-0.1,0.2-0.2,0.2-0.2
		c0.3-0.2,0.5-0.5,0.8-0.8c0.1-0.1,0.2-0.2,0.2-0.2c0.1-0.1,0.2-0.2,0.3-0.2c1.1-1.1,2.2-2.2,3.4-3.3C134.5,45.5,147.5,16.3,137.2,6
		z M105.6,70.7c-0.9,0.9-1.8,1.8-2.7,2.7c-0.1,0.1-0.2,0.2-0.2,0.2c-0.1,0.1-0.2,0.1-0.2,0.2c-0.2,0.2-0.5,0.5-0.8,0.8
		c-0.1,0.1-0.2,0.2-0.3,0.2c-0.1,0.1-0.2,0.2-0.2,0.2C91.7,83.8,82,91,72.9,96.1c-0.1,0.1-0.2,0.1-0.4,0.2c-0.1,0.1-0.2,0.1-0.4,0.2
		c-0.4,0.2-0.8,0.4-1.1,0.6l-0.4,0.2c-0.1,0.1-0.2,0.1-0.4,0.2c-0.8,0.4-1.6,0.8-2.5,1.2c-11.8,5.6-20.8,6.2-25.2,1.9
		c-4.2-4.3-3.6-12.7,0.9-23.1c0.1-0.1,0.1-0.2,0.2-0.4c0-0.1,0.1-0.2,0.1-0.3c0.1-0.4,0.3-0.7,0.5-1c0.1-0.1,0.1-0.2,0.2-0.4
		c0.1-0.1,0.1-0.2,0.2-0.4c5.4-11.4,15.1-24.8,27.9-37.5c0.1-0.1,0.2-0.2,0.4-0.4c0.1-0.1,0.1-0.2,0.2-0.2c0.1-0.1,0.2-0.2,0.2-0.2
		c0.2-0.2,0.5-0.5,0.7-0.7l0.2-0.2l0.2-0.2c19-18.4,40-30.6,52.7-30.6c3.6,0,6.3,1,8.2,2.8c4.4,4.4,3.7,13.3-1.9,25.2
		C128,44.9,118.1,58.3,105.6,70.7z"/>
	
		<linearGradient id="SVGID_5_" gradientUnits="userSpaceOnUse" x1="72.8769" y1="581.3129" x2="102.9244" y2="581.3129" gradientTransform="matrix(1 0 0 1 0 -526)">
		<stop  offset="0" style="stop-color:#0C8ACC"/>
		<stop  offset="1" style="stop-color:#0FB0A3"/>
	</linearGradient>
	<path class="st4" d="M102.9,73.4c-0.1,0.1-0.2,0.2-0.2,0.2c-0.1,0.1-0.2,0.1-0.2,0.2c-0.2,0.2-0.5,0.5-0.8,0.8
		c-0.1,0.1-0.2,0.2-0.3,0.2c-0.1,0.1-0.2,0.2-0.2,0.2c-5.6-12-15.5-25.3-27.8-37.6l-0.4-0.4c0.1-0.1,0.1-0.2,0.2-0.2
		c0.1-0.1,0.2-0.2,0.2-0.2c0.2-0.2,0.5-0.5,0.7-0.7l0.2-0.2l0.2-0.2l0.4,0.4C87.3,48.1,97.2,61.4,102.9,73.4z"/>
	
		<linearGradient id="SVGID_6_" gradientUnits="userSpaceOnUse" x1="20.4915" y1="582.522" x2="144.9977" y2="582.522" gradientTransform="matrix(1 0 0 1 0 -526)">
		<stop  offset="0" style="stop-color:#0C8ACC"/>
		<stop  offset="1" style="stop-color:#0FB0A3"/>
	</linearGradient>
	<path class="st5" d="M112,92.3c-0.2-1.1-0.8-2.1-1.6-2.9c-0.1-0.1-0.2-0.2-0.4-0.4c-0.7-0.5-1.5-0.9-2.3-1.1l0,0
		c-0.2-0.1-0.4-0.1-0.6-0.1c-0.2-0.1-0.4-0.1-0.6-0.1c-0.4,0-0.8,0.1-1.2,0.1c-0.1,0-0.2,0.1-0.4,0.1c-0.7,0.2-1.4,0.5-2,1
		c-1.1,0.8-1.8,2.1-2.1,3.4c-0.1,0.4-0.1,0.7-0.1,1.1s0.1,0.7,0.1,1c0.3,1.6,1.3,3,2.7,3.9c0.1,0.1,0.2,0.1,0.4,0.2
		c0.8,0.4,1.6,0.6,2.5,0.6c0.2,0,0.5,0,0.7-0.1h0.1c2.4-0.3,4.4-2.1,4.8-4.5c0.1-0.4,0.1-0.7,0.1-1.1
		C112.1,93.1,112.1,92.7,112,92.3z M144.9,18.4c-0.2-1.1-0.8-2.1-1.6-2.9c-0.1-0.1-0.2-0.3-0.4-0.4c-0.7-0.5-1.5-0.9-2.3-1.1l0,0
		c-0.2-0.1-0.4-0.1-0.6-0.1c-0.2-0.1-0.4-0.1-0.6-0.1c-0.4,0-0.8,0.1-1.2,0.1c-0.1,0-0.2,0.1-0.4,0.1c-0.7,0.2-1.4,0.5-2,1
		c-1.1,0.8-1.8,2.1-2.1,3.4c-0.1,0.4-0.1,0.7-0.1,1.1s0.1,0.7,0.1,1c0.3,1.6,1.3,3,2.7,3.9c0.1,0.1,0.2,0.1,0.4,0.2
		c0.8,0.4,1.6,0.6,2.5,0.6c0.2,0,0.5,0,0.7-0.1h0.1c2.4-0.3,4.4-2.1,4.8-4.5c0.1-0.4,0.1-0.7,0.1-1.1C145,19.2,145,18.8,144.9,18.4z
		 M31.8,56.9c-0.2-1.1-0.8-2.1-1.6-2.9c-0.1-0.1-0.2-0.2-0.4-0.4c-0.7-0.5-1.5-0.9-2.3-1.1l0,0c-0.2-0.1-0.4-0.1-0.6-0.1
		c-0.2-0.1-0.4-0.1-0.6-0.1c-0.4,0-0.8,0.1-1.2,0.1c-0.1,0-0.2,0.1-0.4,0.1c-0.7,0.2-1.4,0.5-2,1c-1.1,0.8-1.8,2.1-2.1,3.4
		c-0.1,0.4-0.1,0.7-0.1,1.1s0.1,0.7,0.1,1c0.3,1.6,1.3,3,2.7,3.9c0.1,0.1,0.2,0.1,0.4,0.2c0.8,0.4,1.6,0.6,2.5,0.6
		c0.2,0,0.5,0,0.7-0.1H27c2.4-0.3,4.4-2.1,4.8-4.5c0.1-0.4,0.1-0.7,0.1-1.1C32,57.7,31.9,57.3,31.8,56.9L31.8,56.9z"/>
</g>
</svg>
