<?xml version="1.0" encoding="utf-8"?>
<!-- Generator: Adobe Illustrator 23.0.0, SVG Export Plug-In . SVG Version: 6.00 Build 0)  -->
<svg version="1.1" id="Layer_1" xmlns="http://www.w3.org/2000/svg" xmlns:xlink="http://www.w3.org/1999/xlink" x="0px" y="0px"
	 viewBox="0 0 471 195" style="enable-background:new 0 0 471 195;" xml:space="preserve">
<style type="text/css">
	.st0{fill:#0FB0A3;}
	.st1{fill:url(#SVGID_1_);}
	.st2{fill:url(#SVGID_2_);}
	.st3{fill:url(#SVGID_3_);}
	.st4{fill:url(#SVGID_4_);}
	.st5{fill:url(#SVGID_5_);}
	.st6{fill:url(#SVGID_6_);}
</style>
<g>
	<path class="st0" d="M303.9,59h-21L248,159h20.6l6.6-21.2h36.1L318,159h21.1L303.9,59z M279.9,122.3l9-28.8
		c1.7-5.3,4.2-15.4,4.2-15.4h0.3c0,0,2.3,10.1,4,15.4l8.9,28.8H279.9z M407.2,126.9c-1.3,10.5-9.7,17.6-21.6,17.6
		c-16.8,0-27.4-14.6-27.4-35.1c0-19.9,8.8-35.3,27.3-35.3c11.8,0,19.3,6.6,21.1,16.6h20.1c-2.1-19-16.6-33.7-41.3-33.7
		c-29.5,0-48,22.7-48,52.3c0,30.1,20,51.8,48.1,51.8c13.9,0,23.5-4.2,30.4-10.6c6.5-6.2,10.5-14.6,11-23.6L407.2,126.9z M437.7,59.1
		v100h20.3v-100H437.7z"/>
	
		<linearGradient id="SVGID_1_" gradientUnits="userSpaceOnUse" x1="125.2081" y1="35.88" x2="184.0195" y2="35.88" gradientTransform="matrix(1 0 0 -1 0 194)">
		<stop  offset="0" style="stop-color:#0C8ACC"/>
		<stop  offset="1" style="stop-color:#0FB0A3"/>
	</linearGradient>
	<path class="st1" d="M178.3,177.2c-3.9,3.9-9.4,5.8-16.4,5.8c-10.1,0-22.8-4.1-36.7-11.5c0.2-0.1,0.4-0.2,0.6-0.3
		c0.2-0.1,0.4-0.2,0.6-0.3c0.6-0.3,1.2-0.7,1.9-1c0.2-0.1,0.4-0.2,0.6-0.3c0.2-0.1,0.4-0.2,0.6-0.3c20.6,10.6,37.8,13.2,45.8,5.1
		c6.6-6.6,6-20.4-1.7-38.1c0.1-0.2,0.3-0.3,0.5-0.4c0.2-0.1,0.3-0.3,0.4-0.4c0.5-0.4,0.9-0.8,1.4-1.3c0.2-0.1,0.3-0.3,0.4-0.4
		c0.2-0.1,0.3-0.3,0.5-0.4C185.9,153.5,186.4,169.1,178.3,177.2z"/>
	
		<linearGradient id="SVGID_2_" gradientUnits="userSpaceOnUse" x1="76.8381" y1="43.32" x2="125.3281" y2="43.32" gradientTransform="matrix(1 0 0 -1 0 194)">
		<stop  offset="0" style="stop-color:#0C8ACC"/>
		<stop  offset="1" style="stop-color:#0FB0A3"/>
	</linearGradient>
	<path class="st2" d="M125.3,166.9c-0.2,0.1-0.4,0.2-0.6,0.3c-0.2,0.1-0.4,0.2-0.6,0.4c-0.6,0.4-1.3,0.7-1.9,1l-0.6,0.3
		c-0.2,0.1-0.4,0.2-0.6,0.3c-14.1-8.1-29.3-19.4-44.2-33.1c0.1-0.2,0.2-0.4,0.3-0.6c0-0.2,0.1-0.4,0.2-0.5c0.2-0.6,0.5-1.1,0.8-1.7
		c0.1-0.2,0.2-0.4,0.3-0.6c0.1-0.2,0.2-0.4,0.3-0.6C94.5,147,110.7,158.8,125.3,166.9z"/>
	
		<linearGradient id="SVGID_3_" gradientUnits="userSpaceOnUse" x1="13.0719" y1="121.44" x2="125.3281" y2="121.44" gradientTransform="matrix(1 0 0 -1 0 194)">
		<stop  offset="0" style="stop-color:#0C8ACC"/>
		<stop  offset="1" style="stop-color:#0FB0A3"/>
	</linearGradient>
	<path class="st3" d="M125.3,63.7c-0.1,0.1-0.3,0.3-0.4,0.4c-0.1,0.2-0.3,0.3-0.4,0.4c-0.4,0.4-0.8,0.8-1.2,1.2
		c-0.2,0.1-0.3,0.3-0.4,0.4l-0.4,0.4c-19.8-19.1-40.8-34.3-59.7-43c-10.6-4.9-20.1-7.4-27.6-7.4c-5.9,0-10.3,1.5-13.4,4.5
		c-7.2,7.2-6.1,22,3.1,41.7c9.3,19.8,25.8,42,46.3,62.6c1.5,1.5,2.9,2.9,4.4,4.3c-0.2,0.4-0.4,0.7-0.6,1.1c-0.3,0.6-0.5,1.1-0.8,1.7
		c-0.1,0.2-0.2,0.3-0.3,0.5c-0.1,0.2-0.2,0.4-0.3,0.6c-1.8-1.8-3.6-3.5-5.5-5.4C23.6,83,1.9,34.8,18.8,17.8
		c8.4-8.3,24.6-7.6,45.6,2.1C83.8,28.8,105.2,44.3,125.3,63.7z"/>
	
		<linearGradient id="SVGID_4_" gradientUnits="userSpaceOnUse" x1="66.6595" y1="96.5368" x2="237.6205" y2="96.5368" gradientTransform="matrix(1 0 0 -1 0 194)">
		<stop  offset="0" style="stop-color:#0C8ACC"/>
		<stop  offset="1" style="stop-color:#0FB0A3"/>
	</linearGradient>
	<path class="st4" d="M231.8,17.8C215.3,1.2,169,21.4,125.3,63.7c-0.1,0.1-0.3,0.3-0.4,0.4c-0.1,0.2-0.3,0.3-0.4,0.4
		c-0.4,0.4-0.8,0.8-1.2,1.2c-0.2,0.1-0.3,0.3-0.4,0.4l-0.4,0.4l-0.6,0.6c-21.1,21.1-37,43-46.2,62.1c-0.2,0.4-0.4,0.7-0.6,1.1
		c-0.3,0.6-0.5,1.1-0.8,1.7c-0.1,0.2-0.2,0.3-0.3,0.5c-0.1,0.2-0.2,0.4-0.3,0.6c-8.6,19.5-9.7,35.6-1.3,44c3.9,3.8,9.3,5.8,16.3,5.8
		c8.2,0,18.1-2.7,29.4-7.9c2.3-1.1,4.7-2.3,7.1-3.6c0.2-0.1,0.4-0.2,0.6-0.3c0.2-0.1,0.4-0.2,0.6-0.3c0.6-0.3,1.2-0.7,1.9-1
		c0.2-0.1,0.4-0.2,0.6-0.3c0.2-0.1,0.4-0.2,0.6-0.3c14.4-8.2,29.6-19.5,44.2-33c0.1-0.2,0.3-0.3,0.5-0.4c0.2-0.1,0.3-0.3,0.4-0.4
		c0.5-0.4,0.9-0.8,1.4-1.3c0.2-0.1,0.3-0.3,0.4-0.4c0.2-0.1,0.3-0.3,0.5-0.4c1.9-1.8,3.7-3.6,5.6-5.4
		C227.2,83.1,248.8,34.8,231.8,17.8z M179.5,124.9c-1.5,1.5-3,3-4.5,4.4c-0.2,0.1-0.3,0.3-0.4,0.4c-0.2,0.1-0.3,0.2-0.4,0.4
		c-0.4,0.4-0.9,0.8-1.3,1.3c-0.2,0.1-0.3,0.3-0.5,0.4c-0.2,0.1-0.3,0.3-0.4,0.4c-15.5,14.4-31.5,26.3-46.6,34.6
		c-0.2,0.1-0.4,0.2-0.6,0.3c-0.2,0.1-0.4,0.2-0.6,0.4c-0.6,0.4-1.3,0.7-1.9,1l-0.6,0.3c-0.2,0.1-0.4,0.2-0.6,0.3
		c-1.4,0.7-2.7,1.4-4.1,2c-19.6,9.2-34.4,10.3-41.6,3.1c-7-7.1-6-21,1.5-38.2c0.1-0.2,0.2-0.4,0.3-0.6c0-0.2,0.1-0.4,0.2-0.5
		c0.2-0.6,0.5-1.1,0.8-1.7c0.1-0.2,0.2-0.4,0.3-0.6c0.1-0.2,0.2-0.4,0.3-0.6c8.9-18.8,25-41,46.1-62c0.2-0.2,0.4-0.4,0.6-0.6
		c0.1-0.2,0.2-0.3,0.4-0.4c0.1-0.2,0.3-0.3,0.4-0.4c0.4-0.4,0.8-0.8,1.2-1.2l0.4-0.4l0.4-0.4c31.5-30.4,66.1-50.6,87.2-50.6
		c5.9,0,10.4,1.6,13.5,4.7c7.2,7.2,6.1,22-3.1,41.7C216.5,82.1,200.1,104.3,179.5,124.9z"/>
	
		<linearGradient id="SVGID_5_" gradientUnits="userSpaceOnUse" x1="125.348" y1="94.56" x2="175.048" y2="94.56" gradientTransform="matrix(1 0 0 -1 0 194)">
		<stop  offset="0" style="stop-color:#0C8ACC"/>
		<stop  offset="1" style="stop-color:#0FB0A3"/>
	</linearGradient>
	<path class="st5" d="M175,129.3c-0.2,0.1-0.3,0.3-0.4,0.4c-0.2,0.1-0.3,0.2-0.4,0.4c-0.4,0.4-0.9,0.8-1.3,1.3
		c-0.2,0.1-0.3,0.3-0.5,0.4c-0.2,0.1-0.3,0.3-0.4,0.4c-9.3-19.8-25.6-41.8-46-62.2l-0.6-0.6c0.1-0.2,0.2-0.3,0.4-0.4
		c0.1-0.2,0.3-0.3,0.4-0.4c0.4-0.4,0.8-0.8,1.2-1.2l0.4-0.4l0.4-0.4l0.6,0.6C149.2,87.5,165.5,109.5,175,129.3z"/>
	
		<linearGradient id="SVGID_6_" gradientUnits="userSpaceOnUse" x1="38.8381" y1="92.5259" x2="244.6783" y2="92.5259" gradientTransform="matrix(1 0 0 -1 0 194)">
		<stop  offset="0" style="stop-color:#0C8ACC"/>
		<stop  offset="1" style="stop-color:#0FB0A3"/>
	</linearGradient>
	<path class="st6" d="M190.1,160.6c-0.4-1.8-1.3-3.5-2.7-4.8c-0.2-0.2-0.4-0.4-0.7-0.6c-1.1-0.9-2.4-1.5-3.8-1.8l0,0
		c-0.3-0.1-0.7-0.1-1-0.2c-0.3-0.1-0.7-0.1-1-0.1c-0.7,0-1.3,0.1-2,0.2c-0.2,0-0.4,0.1-0.6,0.2c-1.2,0.3-2.3,0.9-3.3,1.7
		c-1.8,1.4-3,3.4-3.4,5.6c-0.1,0.6-0.2,1.2-0.2,1.8c0,0.6,0.1,1.2,0.2,1.7c0.5,2.7,2.1,5,4.5,6.4c0.2,0.1,0.4,0.2,0.6,0.3
		c1.3,0.7,2.7,1,4.2,1c0.4,0,0.8,0,1.1-0.1h0.1c4-0.5,7.2-3.5,8-7.4c0.1-0.6,0.2-1.2,0.2-1.9C190.3,161.9,190.3,161.3,190.1,160.6z
		 M244.4,38.3c-0.4-1.8-1.3-3.5-2.7-4.8c-0.2-0.2-0.4-0.5-0.7-0.6c-1.1-0.9-2.4-1.5-3.8-1.8l0,0c-0.3-0.1-0.7-0.1-1-0.2
		c-0.3-0.1-0.7-0.1-1-0.1c-0.7,0-1.3,0.1-2,0.2c-0.2,0-0.4,0.1-0.6,0.2c-1.2,0.3-2.3,0.9-3.3,1.7c-1.8,1.4-3,3.4-3.4,5.6
		c-0.1,0.6-0.2,1.2-0.2,1.8c0,0.6,0.1,1.1,0.2,1.7c0.5,2.7,2.1,5,4.5,6.4c0.2,0.1,0.4,0.2,0.6,0.3c1.3,0.7,2.7,1,4.2,1
		c0.4,0,0.8,0,1.1-0.1h0.1c4-0.5,7.2-3.5,8-7.4c0.1-0.6,0.2-1.2,0.2-1.9C244.7,39.7,244.6,39,244.4,38.3z M57.4,102.1
		c-0.4-1.8-1.3-3.5-2.7-4.8c-0.2-0.2-0.4-0.4-0.7-0.6c-1.1-0.9-2.4-1.5-3.8-1.8l0,0c-0.3-0.1-0.7-0.1-1-0.2c-0.3-0.1-0.7-0.1-1-0.1
		c-0.7,0-1.3,0.1-2,0.2c-0.2,0-0.4,0.1-0.6,0.2c-1.2,0.3-2.3,0.9-3.3,1.7c-1.8,1.4-3,3.4-3.4,5.6c-0.1,0.6-0.2,1.2-0.2,1.8
		c0,0.6,0.1,1.1,0.2,1.7c0.5,2.7,2.1,5,4.5,6.4c0.2,0.1,0.4,0.2,0.6,0.3c1.3,0.7,2.7,1,4.2,1c0.4,0,0.8,0,1.1-0.1h0.1
		c4-0.5,7.2-3.5,8-7.4c0.1-0.6,0.2-1.2,0.2-1.9C57.7,103.4,57.6,102.7,57.4,102.1L57.4,102.1z"/>
</g>
</svg>
